<svg xmlns="http://www.w3.org/2000/svg" width="18.089" height="18.088" viewBox="0 0 18.089 18.088">
  <path id="Icon_material-language" data-name="Icon material-language" d="M12.035,3a9.044,9.044,0,1,0,9.053,9.044A9.04,9.04,0,0,0,12.035,3ZM18.3,8.427H15.635a14.153,14.153,0,0,0-1.248-3.22A7.262,7.262,0,0,1,18.3,8.427ZM12.044,4.845a12.74,12.74,0,0,1,1.727,3.582H10.317A12.74,12.74,0,0,1,12.044,4.845Zm-7,9.008a7.075,7.075,0,0,1,0-3.618H8.1a14.937,14.937,0,0,0-.127,1.809A14.937,14.937,0,0,0,8.1,13.853Zm.742,1.809H8.454A14.153,14.153,0,0,0,9.7,18.882,7.223,7.223,0,0,1,5.786,15.662ZM8.454,8.427H5.786A7.223,7.223,0,0,1,9.7,5.207,14.153,14.153,0,0,0,8.454,8.427Zm3.591,10.817a12.74,12.74,0,0,1-1.727-3.582h3.455A12.74,12.74,0,0,1,12.044,19.243Zm2.116-5.39H9.928a13.307,13.307,0,0,1-.145-1.809,13.191,13.191,0,0,1,.145-1.809h4.233a13.191,13.191,0,0,1,.145,1.809A13.306,13.306,0,0,1,14.161,13.853Zm.226,5.029a14.153,14.153,0,0,0,1.248-3.22H18.3a7.262,7.262,0,0,1-3.916,3.22Zm1.6-5.029a14.937,14.937,0,0,0,.127-1.809,14.937,14.937,0,0,0-.127-1.809h3.057a7.075,7.075,0,0,1,0,3.618Z" transform="translate(-3 -3)" fill="#0a0a0a"/>
</svg>
