<svg xmlns="http://www.w3.org/2000/svg" width="23.818" height="22.826" viewBox="0 0 23.818 22.826">
  <g id="Icon_feather-shopping-cart" data-name="Icon feather-shopping-cart" transform="translate(1 1)">
    <path id="Path_198" data-name="Path 198" d="M13.983,30.992A.992.992,0,1,1,12.992,30,.992.992,0,0,1,13.983,30.992Z" transform="translate(-5.058 -11.157)" fill="none" stroke="#0a0a0a" stroke-linecap="round" stroke-linejoin="round" stroke-width="2"/>
    <path id="Path_199" data-name="Path 199" d="M30.483,30.992A.992.992,0,1,1,29.492,30,.992.992,0,0,1,30.483,30.992Z" transform="translate(-10.649 -11.157)" fill="none" stroke="#0a0a0a" stroke-linecap="round" stroke-linejoin="round" stroke-width="2"/>
    <path id="Path_200" data-name="Path 200" d="M1.5,1.5H5.467L8.125,14.779a1.983,1.983,0,0,0,1.983,1.6h9.639a1.983,1.983,0,0,0,1.983-1.6l1.587-8.32H6.459" transform="translate(-1.5 -1.5)" fill="none" stroke="#0a0a0a" stroke-linecap="round" stroke-linejoin="round" stroke-width="2"/>
  </g>
</svg>
